# Blender v2.90.0 OBJ File: ''
# www.blender.org
mtllib cube-smooth.mtl
o Cube.001
v -1.000000 1.000000 -1.000000
v 1.000000 1.000000 1.000000
v 1.000000 1.000000 -1.000000
v -1.000000 -1.000000 1.000000
v 1.000000 -1.000000 1.000000
v -1.000000 1.000000 1.000000
v -1.000000 -1.000000 -1.000000
v 1.000000 -1.000000 -1.000000
vt 0.997977 0.000523
vt 0.000024 0.998477
vt 0.000024 0.000523
vt 1.004445 -0.005945
vt -0.004445 1.002945
vt -0.004445 -0.005945
vt 1.000448 -0.002639
vt -0.000448 0.998256
vt -0.000448 -0.002639
vt 1.001069 -0.005491
vt 0.000930 0.994648
vt 0.000930 -0.005491
vt 1.015027 -0.029062
vt -0.015027 1.000993
vt -0.015027 -0.029062
vt 1.002735 0.000225
vt -0.002735 1.005696
vt -0.002735 0.000225
vt 0.997977 0.998477
vt 1.004445 1.002945
vt 1.000448 0.998256
vt 1.001069 0.994648
vt 1.015027 1.000993
vt 1.002735 1.005696
vn -0.5774 0.5774 -0.5774
vn 0.5774 0.5774 0.5774
vn 0.5774 0.5774 -0.5774
vn -0.5774 -0.5774 0.5774
vn 0.5774 -0.5774 0.5774
vn -0.5774 0.5774 0.5774
vn -0.5774 -0.5774 -0.5774
vn 0.5774 -0.5774 -0.5774
usemtl Material.001
s 1
f 1/1/1 2/2/2 3/3/3
f 2/4/2 4/5/4 5/6/5
f 6/7/6 7/8/7 4/9/4
f 8/10/8 4/11/4 7/12/7
f 3/13/3 5/14/5 8/15/8
f 1/16/1 8/17/8 7/18/7
f 1/1/1 6/19/6 2/2/2
f 2/4/2 6/20/6 4/5/4
f 6/7/6 1/21/1 7/8/7
f 8/10/8 5/22/5 4/11/4
f 3/13/3 2/23/2 5/14/5
f 1/16/1 3/24/3 8/17/8
